<svg xmlns="http://www.w3.org/2000/svg" viewBox="0 0 448.92 89.37"><defs><style>.cls-1{font-size:76.38px;font-family:Montserrat-Black, Montserrat;font-weight:800;letter-spacing:-0.02em;}.cls-2{letter-spacing:-0.03em;}.cls-3{font-size:12px;font-family:Montserrat-Medium, Montserrat;font-weight:500;letter-spacing:0.74em;}.cls-4{letter-spacing:0.73em;}.cls-5{letter-spacing:0.74em;}.cls-6{letter-spacing:0.73em;}.cls-7{fill:none;stroke:#000;stroke-width:0.5px;}</style></defs><title>Asset 4</title><g id="Layer_2" data-name="Layer 2"><g id="Layer_1-2" data-name="Layer 1"><text class="cls-1" transform="translate(0 64.93)">M<tspan class="cls-2" x="71.34" y="0">A</tspan><tspan x="130.62" y="0">GAZINE</tspan></text><text class="cls-3" transform="translate(9.09 86.26)">NO RESPOSIBILI<tspan class="cls-4" x="225.15" y="0">T</tspan><tspan class="cls-5" x="240.98" y="0">Y </tspan><tspan class="cls-6" x="269.73" y="0">F</tspan><tspan x="286.14" y="0">OR ERRORS</tspan></text><path class="cls-7" d="M309.81,67.88l.9-53.47h18l-.9,53.47Z"/><path class="cls-7" d="M122.37,67.88H141L118.53,14.41H100.81L77.44,67.88H95.77l3.58-9.32H119Zm-18-22.3,5.08-13.23,4.82,13.23Z"/><polygon class="cls-7" points="61.09 14.41 44.16 42.86 44.15 42.86 26.72 14.41 11.9 14.41 11.9 67.88 28.32 67.88 28.32 44.34 39.93 63.07 47.88 63.07 59.37 43.73 58.74 67.88 75.16 67.88 75.91 14.41 61.09 14.41"/><path class="cls-7" d="M177.88,52.92l-.26.42-.35.14a17.63,17.63,0,0,1-6,1,13.61,13.61,0,0,1-5.23-.95,11.61,11.61,0,0,1-4-2.71,12.15,12.15,0,0,1-2.6-4.24,15.72,15.72,0,0,1-.91-5.46,15.85,15.85,0,0,1,.91-5.58,12.16,12.16,0,0,1,2.6-4.2,10.93,10.93,0,0,1,4.09-2.67,14.78,14.78,0,0,1,5.38-.92,14.16,14.16,0,0,1,6.53,1.49,18.16,18.16,0,0,1,5.46,4.39L195.07,23.5a26.61,26.61,0,0,0-10.28-7.64,35.63,35.63,0,0,0-14.17-2.67,35.21,35.21,0,0,0-12.18,2A28.35,28.35,0,0,0,148.85,21a26.21,26.21,0,0,0-6.26,8.86,28.11,28.11,0,0,0-2.21,11.31,28.09,28.09,0,0,0,2.21,11.3,26.17,26.17,0,0,0,6.23,8.86,27.84,27.84,0,0,0,9.47,5.77,34.1,34.1,0,0,0,12,2,45,45,0,0,0,12.15-1.75,38.51,38.51,0,0,0,11.15-5V39.69H177.88Z"/><path class="cls-7" d="M238.85,67.88h18.64L235,14.41H217.29L193.92,67.88h18.33l3.58-9.32h19.63Zm-18-22.3,5.08-13.23,4.82,13.23Z"/><polygon class="cls-7" points="281.34 53.9 305.75 25.49 305.75 14.41 258.62 14.41 258.62 28.39 282.26 28.39 257.85 56.8 256.95 67.88 306.07 67.88 306.97 53.9 281.34 53.9"/><polygon class="cls-7" points="371.05 14.41 371.05 38.72 350.74 14.41 335.92 14.41 335.92 67.88 353.49 67.88 353.49 43.91 353.53 43.9 372.9 67.88 387.72 67.88 388.62 14.41 371.05 14.41"/><path class="cls-7" d="M413.52,54.28v-7l0,0h22.59v-13H413.57l-.05,0V28h25.74V14.41H395.8l-.9,53.47h44.46l.9-13.6Z"/></g></g></svg>